HIERARCHY
ROOT Hips
{
	OFFSET 0.0000 0.0000 0.0000
	CHANNELS 6 Xposition Yposition Zposition Zrotation Xrotation Yrotation
	JOINT Ab
	{
		OFFSET -0.0000 8.1305 -0.0000
		CHANNELS 3 Zrotation Xrotation Yrotation
		JOINT Chest
		{
			OFFSET -0.0000 26.2902 -0.0000
			CHANNELS 3 Zrotation Xrotation Yrotation
			JOINT Neck
			{
				OFFSET -0.0000 26.2902 0.0000
				CHANNELS 3 Zrotation Xrotation Yrotation
				JOINT Head
				{
					OFFSET -0.0000 10.8167 0.0000
					CHANNELS 3 Zrotation Xrotation Yrotation
					End Site
					{
						OFFSET -0.0000 16.7167 0.0000
					}
				}
			}
			JOINT LeftCollar
			{
				OFFSET -0.0000 26.2902 0.0000
				CHANNELS 3 Zrotation Xrotation Yrotation
				JOINT LeftShoulder
				{
					OFFSET 19.6667 -0.0000 0.0000
					CHANNELS 3 Zrotation Xrotation Yrotation
					JOINT LeftElbow
					{
						OFFSET 27.2190 0.0000 0.0000
						CHANNELS 3 Zrotation Xrotation Yrotation
						JOINT LeftWrist
						{
							OFFSET 30.7431 0.0000 0.0000
							CHANNELS 3 Zrotation Xrotation Yrotation
							End Site
							{
								OFFSET 0.0000 -14.7500 0.0000
							}
						}
					}
				}
			}
			JOINT RightCollar
			{
				OFFSET -0.0000 26.2902 0.0000
				CHANNELS 3 Zrotation Xrotation Yrotation
				JOINT RightShoulder
				{
					OFFSET -19.6667 0.0000 0.0000
					CHANNELS 3 Zrotation Xrotation Yrotation
					JOINT RightElbow
					{
						OFFSET -27.2190 0.0000 0.0000
						CHANNELS 3 Zrotation Xrotation Yrotation
						JOINT RightWrist
						{
							OFFSET -30.7431 0.0000 0.0000
							CHANNELS 3 Zrotation Xrotation Yrotation
							End Site
							{
								OFFSET -0.0000 -14.7500 0.0000
							}
						}
					}
				}
			}
		}
	}
	JOINT LeftHip
	{
		OFFSET 11.8000 0.0000 0.0000
		CHANNELS 3 Zrotation Xrotation Yrotation
		JOINT LeftKnee
		{
			OFFSET -0.0000 -39.7832 0.0000
			CHANNELS 3 Zrotation Xrotation Yrotation
			JOINT LeftAnkle
			{
				OFFSET -0.0000 -41.7317 0.0000
				CHANNELS 3 Zrotation Xrotation Yrotation
				End Site
				{
					OFFSET -0.0000 -4.9167 16.7167
				}
			}
		}
	}
	JOINT RightHip
	{
		OFFSET -11.8000 0.0000 0.0000
		CHANNELS 3 Zrotation Xrotation Yrotation
		JOINT RightKnee
		{
			OFFSET -0.0000 -39.7832 0.0000
			CHANNELS 3 Zrotation Xrotation Yrotation
			JOINT RightAnkle
			{
				OFFSET -0.0000 -41.7317 0.0000
				CHANNELS 3 Zrotation Xrotation Yrotation
				End Site
				{
					OFFSET -0.0000 -4.9167 16.7167
				}
			}
		}
	}
}
MOTION
Frames: 22
Frame Time: 0.010000
-2.8461 91.5145 87.7097 356.8859 349.8285 178.1555 358.4667 350.7340 3.4755 1.6709 8.2958 3.4785 353.1229 344.6911 358.9749 1.8842 8.6677 359.7609 337.7778 357.2150 14.1142 319.5636 39.3694 5.4012 352.1208 4.1455 302.6109 87.0287 357.4809 334.9208 25.6571 355.8806 342.0402 29.8477 51.3149 16.9067 335.1494 341.3825 73.7913 263.9478 353.4078 357.4075 352.5301 331.1719 2.2701 358.7721 15.6748 1.1272 351.3237 349.4239 14.7744 359.3338 11.6489 6.9748 7.1663 15.0319 13.2193 356.9947 345.5604 325.4943 
-2.7592 91.3019 86.9599 356.9667 349.8014 177.9988 358.4746 350.6957 3.5124 1.6666 8.2710 3.5167 353.1906 344.6642 359.0540 1.7756 8.6732 359.8425 337.8160 357.2252 14.1102 319.3155 39.5975 5.5010 352.6459 3.8262 302.4646 86.8508 357.4605 334.8971 25.6644 355.8736 341.9752 29.9724 51.3456 16.7794 335.3562 341.5093 73.7813 264.0750 353.3813 357.5465 352.4827 331.2485 1.9796 358.8573 14.7893 1.1745 351.3544 349.3912 14.7578 359.3957 11.8809 6.8975 7.1461 15.5368 13.9657 357.7233 345.1682 325.1237 
-2.6139 90.9089 85.6107 357.1625 349.9921 177.9625 358.4668 350.8491 3.5016 1.6331 8.0929 3.5079 353.3961 344.8154 359.0775 1.5935 8.6539 359.8299 337.8905 357.2226 14.2913 319.6336 40.1609 4.9632 352.9464 3.6883 302.4222 86.7181 357.3274 335.1452 25.7331 355.8192 341.6995 30.1883 51.2957 16.4807 335.6912 341.8258 73.7876 264.0966 353.4645 357.5299 352.4635 331.6831 1.1165 358.7796 14.0883 1.4526 351.3053 349.1990 14.9136 359.5636 12.1865 6.6992 7.2675 16.9646 14.5463 358.1832 345.1958 325.2547 
-2.4663 90.4100 84.1072 357.3262 350.1949 177.8803 358.4852 350.8560 3.4052 1.5299 8.1068 3.4166 353.5152 344.9786 359.2216 1.6350 8.5806 359.9435 337.8594 357.2175 14.3051 320.0527 40.1823 4.7075 352.9906 3.7898 302.0808 86.8334 357.2774 335.2582 25.8969 355.7619 341.6057 30.3254 51.0363 16.0370 336.2898 342.4044 73.8732 263.8927 353.5488 357.5134 352.4172 332.1755 0.3461 358.7175 13.8611 1.5075 351.7411 349.5398 15.1631 359.6330 12.2923 6.7625 7.5969 18.8482 14.8027 357.7937 345.5225 325.5789 
-2.2913 89.6076 82.0071 357.4917 350.5007 177.6518 358.5767 350.7070 3.2247 1.2301 8.2423 3.2493 353.5405 345.6072 359.4284 1.8494 8.0665 0.1501 338.2702 357.2335 14.8206 320.2041 41.1773 3.9233 353.6599 3.2503 301.4126 86.1175 357.6276 335.3843 26.0973 355.7163 341.7894 30.8167 50.8181 15.1009 336.9586 343.0995 73.7798 263.9715 353.5549 357.4056 352.3172 332.8163 359.7333 358.7750 14.7137 1.7856 354.3629 351.3329 15.0441 359.5578 12.1314 6.5190 8.0563 22.0201 15.5435 357.8565 345.8601 326.0291 
-2.1811 89.0819 80.6605 357.6079 350.7487 177.5076 358.6208 350.7731 3.1511 1.1131 8.2114 3.1820 353.5185 346.0389 359.6327 1.8532 7.6671 0.3062 338.0740 357.1153 15.0012 320.7795 41.3065 3.6398 353.8082 3.3608 300.9597 87.3984 357.3947 335.8775 26.2465 355.7278 341.9763 31.1650 50.7466 14.3379 337.6089 343.5649 73.7138 264.1906 353.4214 358.0136 352.3565 332.8820 359.2288 358.5111 16.1632 1.6584 355.0538 350.3137 15.5147 359.5433 12.2621 6.3986 8.2483 23.7429 15.8526 357.7837 346.1582 326.3291 
-2.1217 88.9569 80.0857 357.6009 350.7115 177.3382 358.5859 350.6843 3.1468 1.0762 8.2879 3.1841 353.4943 345.9698 359.7555 1.8182 7.6395 0.4425 337.9164 357.0593 15.0698 321.0822 41.1860 3.6114 353.8981 3.4268 300.7040 87.6448 357.4759 336.0241 26.2461 355.7823 342.1410 31.5151 50.8005 14.0099 337.9585 343.6754 73.4844 264.6294 353.3011 358.7828 352.3576 332.8973 358.7869 358.3879 16.4390 2.1028 355.1179 350.3413 15.5136 359.4763 12.4791 6.8589 8.3574 23.9152 15.6235 358.1751 345.9749 326.4044 
-2.0242 88.6665 78.8926 357.5983 350.7472 177.1185 358.5260 350.5896 3.1073 0.9515 8.4046 3.1577 353.5514 345.9891 359.8640 1.7003 7.4823 0.5498 337.8833 357.0517 15.0716 321.2536 41.1306 3.3564 354.2484 3.2105 300.5372 87.8583 357.3887 336.2064 26.2358 355.8066 342.1970 32.2259 50.8072 13.2950 338.2560 344.1027 72.9371 264.5661 353.4774 358.8495 352.3686 332.9343 358.2319 358.0947 17.7901 1.9947 356.0465 350.4217 15.9926 359.3501 12.8269 6.5198 8.2922 24.8548 16.0335 358.6958 345.7480 326.8168 
-1.9603 88.4073 77.6526 357.5218 350.7153 176.9154 358.6255 350.2886 2.9828 0.4982 8.7110 3.0595 353.5991 345.9422 0.0353 1.6482 7.3543 0.7259 338.0014 357.0491 15.1971 321.3991 41.0475 2.9875 354.6343 2.9685 300.3729 88.1492 357.3698 336.4067 26.3908 355.8248 342.5304 33.4472 50.0673 11.9070 338.9772 344.8252 72.6584 264.9814 353.3260 0.0484 352.1078 332.8933 357.8187 358.1404 19.1320 1.6487 357.2125 351.0758 16.4649 359.0893 13.0464 6.8671 8.5568 25.7545 15.7038 358.8211 345.8134 327.2384 
-1.9454 88.2025 76.3423 357.2569 350.7366 176.7697 358.3714 350.0920 2.8954 0.2751 8.7939 3.0136 353.7258 346.1117 0.1636 1.3969 7.1540 0.8431 337.8715 357.0224 15.2399 321.6838 41.0657 2.7688 354.9099 2.8248 300.1750 88.4298 357.3738 336.6445 26.4574 355.8560 342.6658 34.3455 50.1587 10.8473 339.1917 345.1168 71.7968 265.5900 353.2181 0.3181 351.6114 333.0541 357.4411 358.4094 19.8452 0.6084 358.1818 352.1577 18.1146 358.6135 13.3391 7.0241 8.6422 26.7345 16.0629 359.2816 345.9066 327.2549 
-1.9105 88.0647 75.0648 356.8613 350.7670 176.6668 357.8720 350.0402 2.7858 0.1317 8.7931 2.9595 353.8021 346.0296 0.2266 1.2561 7.0724 0.9084 337.6895 356.9785 15.2639 322.0291 41.1062 2.5375 355.2921 2.5822 299.8634 88.4909 357.3478 336.9877 26.5652 355.8614 342.6975 35.2325 50.1176 9.8874 339.3712 345.5158 70.6397 266.0868 353.1305 0.8774 351.1491 332.7960 356.8834 358.3112 21.7644 359.8104 359.2664 352.5079 19.7140 358.1225 13.4251 6.9624 8.4928 28.0972 16.7724 0.1610 345.9663 327.1546 
-1.8936 88.0035 73.7859 356.3856 350.8012 176.6843 357.2638 350.0354 2.6834 0.0290 8.7647 2.9188 353.8170 345.9230 0.2490 1.1554 7.0951 0.9397 337.5980 356.9708 15.2229 322.2994 41.2257 2.1741 355.6528 2.4388 299.6564 88.9288 357.2667 337.3181 26.5896 355.8526 342.6408 36.2876 50.0068 8.8141 339.4632 345.8818 69.4042 266.4123 353.1921 1.0241 350.6194 332.5180 355.5630 357.7631 23.7557 0.6703 359.9824 352.4385 20.2713 357.6084 13.3129 7.0345 8.5109 29.6704 16.6645 1.3165 346.2850 327.6160 
-1.8780 87.9901 72.5321 355.9858 350.8669 176.7966 356.5837 350.2695 2.6657 0.2011 8.4046 2.9449 353.5685 346.2325 0.1809 1.2022 6.8141 0.8843 337.3749 356.9723 14.9936 322.6665 41.3933 1.8926 355.7608 2.3965 299.3968 88.7160 357.2496 337.1492 26.4823 355.8727 342.6508 37.8499 49.3438 6.9993 339.6315 346.3272 68.2836 267.3329 353.2992 1.9262 350.2076 332.4902 354.5139 357.1584 25.2641 1.6026 0.9036 352.4559 19.8975 357.1900 12.9055 7.0156 8.7323 31.7004 16.0093 2.8164 346.8258 328.4689 
-1.9035 87.9994 71.2537 355.7842 350.9762 177.0444 356.3309 350.4228 2.5958 0.0623 8.3633 2.8960 353.7841 345.9807 0.1142 0.7355 7.1246 0.8303 337.3688 357.0302 14.7482 323.0194 41.6800 1.3468 356.0152 2.2328 299.0882 88.5200 357.2105 336.8846 26.3897 355.8739 342.6894 39.4365 48.5299 5.1648 339.8459 346.7706 67.3037 267.7963 353.4853 2.6074 349.7356 332.7536 354.1501 357.1495 26.4605 1.2641 1.5523 352.2155 20.2760 356.7918 12.2900 6.2688 9.0308 34.1958 15.8305 4.0512 347.8716 329.1244 
-1.9217 87.9855 69.9826 355.7268 351.2154 177.1448 356.3375 350.7057 2.5776 359.8409 8.2961 2.8854 353.7374 345.9302 0.1481 0.6208 7.3696 0.8848 337.4304 357.0548 14.7387 323.4021 42.1346 0.6044 356.3791 2.0145 298.7887 88.4594 357.1443 336.8262 26.3415 355.9297 342.9385 40.7553 47.8015 3.3503 340.1464 347.2305 66.5511 268.4233 353.9914 3.2637 349.4015 333.4236 354.1562 357.3819 27.2831 0.2755 2.4076 351.9167 20.6449 356.3450 11.5383 5.2763 9.4056 36.9669 15.4990 5.3367 349.4422 330.0315 
-1.9360 87.9433 68.7040 355.7691 351.5507 177.1937 356.4065 351.0846 2.5870 359.7238 8.1559 2.8861 353.7328 346.0364 0.1915 0.4835 7.6932 0.9300 337.4807 357.0591 14.7474 323.7632 42.5151 359.8872 356.6316 1.9214 298.3555 88.5501 357.0402 336.8864 26.3227 355.9683 343.0424 41.4360 47.2357 2.0390 340.6311 347.7513 65.9596 269.1401 354.4291 3.8050 349.1165 334.3378 354.5150 357.9636 27.8838 358.9201 3.1262 351.3461 21.2292 355.9115 10.6834 4.2311 9.6918 39.9223 15.1965 6.9427 351.3582 330.8184 
-1.9488 87.9093 67.4724 355.7168 351.7946 177.1059 356.3173 351.4442 2.5970 359.7590 7.8443 2.8903 353.7270 346.3444 0.2689 0.3670 7.8797 1.0004 337.4697 357.0258 14.9261 324.1758 42.8212 359.1406 356.8380 1.8571 297.7344 88.8449 356.9765 337.0869 26.5664 355.9699 343.4580 41.8037 46.1495 0.1814 341.4344 348.4043 66.0564 269.9840 354.7631 5.1044 348.8852 335.2482 354.4559 358.0703 28.1899 358.8101 3.7988 350.7726 21.5536 355.3824 9.4636 3.5851 10.0431 43.1036 14.5248 6.8539 353.8479 331.6534 
-1.9244 87.7499 66.2694 355.5225 351.9381 177.2060 356.0741 351.6990 2.3539 359.6470 7.6775 2.6581 353.9124 346.5763 0.3771 0.2796 7.7681 1.0788 337.4979 356.9784 15.2275 324.9126 43.1697 357.9972 357.1324 1.6630 296.9559 89.0932 356.9922 337.2870 26.9083 355.9537 343.5597 41.5602 45.2802 359.3413 342.4052 349.0972 66.0638 270.9853 354.6360 6.5593 348.5546 335.8195 353.6342 357.6718 28.8981 359.3441 4.5980 350.3045 21.9311 354.8108 8.0420 3.2934 10.9274 46.3645 13.7680 5.5512 355.6738 331.8103 
-1.8881 87.4758 65.0386 355.1604 351.9980 177.3882 355.6566 351.8137 2.0058 359.5207 7.6743 2.3427 353.9218 346.5896 0.5165 0.3347 7.6310 1.2133 337.4004 356.8986 15.6076 325.8745 43.4865 356.6931 357.5166 1.3749 296.0469 89.4247 357.0790 337.6136 27.3928 355.9195 343.7986 41.1654 44.2587 358.4681 343.5220 349.8468 66.3336 271.8223 354.4429 7.9124 348.0836 336.1483 352.8901 357.1978 29.9551 359.7961 5.3037 349.6755 22.2932 354.1186 6.4989 3.1771 12.2983 49.6358 13.2836 4.4088 355.8485 330.8193 
-1.8666 87.2124 63.7451 354.6663 351.8051 177.5217 355.0206 351.6735 1.6778 359.5105 7.6947 2.0686 354.0823 346.4378 0.6818 0.1864 7.7387 1.3768 336.9969 356.7626 15.8256 327.0316 43.5316 355.4271 357.8671 1.1842 295.0453 89.8525 357.0389 337.8762 27.9247 355.8898 344.0495 40.7290 43.1564 357.5227 344.6545 350.6162 66.5269 272.2346 354.3426 9.3835 347.5295 336.3931 352.5902 356.9260 30.8298 0.1480 5.6264 348.7405 22.2124 353.2515 4.3470 3.1024 14.0296 53.1794 12.8414 3.1306 354.8172 328.9499 
-1.8222 86.8101 62.0491 354.0924 351.3805 177.8581 354.1446 351.3214 1.2965 359.5542 7.9006 1.7639 354.8519 346.2786 0.7205 359.2326 7.6141 1.3747 336.3356 356.5672 16.1935 329.4175 44.1379 352.4600 358.5296 0.5771 293.9769 90.4472 356.5846 338.3009 28.5073 355.8003 343.9650 40.3909 41.7476 356.5042 345.8124 351.4981 66.3601 272.9416 354.2041 10.7876 346.8584 336.5829 352.8302 357.0570 32.0176 359.9785 5.8083 347.3975 21.8733 352.2131 1.2301 2.9499 17.0619 57.4840 10.4986 0.7053 353.3925 327.1796 
-1.8116 86.8615 61.4232 354.0741 351.4405 177.8613 354.1010 351.3188 1.1826 359.5996 7.9561 1.6543 354.8358 346.4606 0.9188 359.4446 7.5235 1.5738 336.3330 356.5615 16.3977 329.5963 44.1729 352.0663 359.0109 0.3758 293.4453 90.6921 356.5247 338.8667 28.5881 355.8583 344.1018 40.1355 41.4780 356.2494 346.4147 351.5193 66.5820 273.7824 354.2068 12.2479 346.9308 337.1946 352.9740 356.9865 31.7828 359.8718 5.9226 347.1975 21.9174 352.0307 0.3266 3.1575 18.1893 58.6318 9.3567 359.9432 353.0576 326.4478 
